# xmcd
#
# Track frame offsets: 
#        150
#        14565
#        29020
#        44005
#        54245
#        66391
#        79021
#        91048
#        103126
#
# Disc length: 1540 seconds
#
# Revision: 0
# Processed by: cddbd v1.5.2PL0 Copyright (c) Steve Scherf et al.
# Submitted via: ExactAudioCopy v0.95b4
#
DISCID=75060209
DTITLE=Harry Belafonte - Most Famous Hits CD 2
DYEAR=1900
DGENRE=Oldies
TTITLE0=Lean On Me
TTITLE1=How Green Is My Valley
TTITLE2=They Didn't Believe Me
TTITLE3=Whispering
TTITLE4=I Still Get A Thrill
TTITLE5=The Night Has Thousand Eyes
TTITLE6=Venezuela
TTITLE7=Only One Like Me
TTITLE8=Round The Bay Of Mexico
EXTD=
EXTT0=
EXTT1=
EXTT2=
EXTT3=
EXTT4=
EXTT5=
EXTT6=
EXTT7=
EXTT8=
PLAYORDER=
